<svg xmlns="http://www.w3.org/2000/svg" version="1.1" xmlns:xlink="http://www.w3.org/1999/xlink" xmlns:svgjs="http://svgjs.dev/svgjs" width="765" height="625" viewBox="0 0 300 300" style="background: rgb(0, 0, 0);" class="svg-animations "><svg viewBox="0 0 133.99343872070312 139.00491333007812" width="50" height="50" fill="#ef9f76" x="125" y="109.52999973297119"><svg width="134" height="134" viewBox="0 0 134 134" xmlns="http://www.w3.org/2000/svg">
	<path d="M72.0461 0.181957C32.836 -2.70327 0 28.3823 0 67.0009C0 73.713 1.00198 80.1836 2.84901 86.292C11.1546 113.865 36.7595 134.001 67 134.001C95.5142 134.001 119.9 116.086 129.557 90.9398C133.143 81.5839 134.724 71.2382 133.674 60.4216C130.559 28.2012 104.339 2.57223 72.0461 0.181957ZM5.37207 83.7811C3.91135 78.4331 3.12667 72.8075 3.12667 67.0009C3.12667 30.4708 33.9346 1.01493 70.9355 3.23619C101.876 5.09529 127.288 29.4447 130.535 60.2647C131.441 68.872 130.572 77.1535 128.326 84.8555L79.2411 35.7825L46.0187 68.9928L33.0775 56.0636L5.37207 83.7811Z"></path>
	</svg></svg><svg fill="#ef9f76" x="78.04499816894531" y="159.5299997329712"><path d="M8.74 14.90L8.74 14.90Q8.99 14.67 9.14 14.18Q9.28 13.68 9.28 13.23L9.28 13.23Q9.28 12.50 8.82 12.02Q8.35 11.54 7.52 11.54L7.52 11.54Q6.66 11.54 6.08 12.18Q5.50 12.82 5.15 13.79Q4.80 14.77 4.66 15.97Q4.51 17.17 4.51 18.32L4.51 18.32Q4.51 20.02 4.82 21.07Q5.12 22.13 5.63 22.72Q6.14 23.31 6.83 23.54Q7.52 23.76 8.29 23.76L8.29 23.76Q9.98 23.76 11.15 22.91Q12.32 22.06 13.15 20.27L13.15 20.27L14.24 20.27Q13.86 21.46 13.15 22.53Q12.45 23.60 11.52 24.42Q10.59 25.23 9.50 25.71Q8.42 26.19 7.23 26.19L7.23 26.19Q6.11 26.19 5.02 25.81Q3.94 25.42 3.07 24.54Q2.21 23.66 1.66 22.24Q1.12 20.82 1.12 18.74L1.12 18.74Q1.12 17.39 1.36 15.84Q1.60 14.29 2.26 12.96Q2.91 11.63 4.06 10.74Q5.22 9.84 7.04 9.84L7.04 9.84Q9.06 9.84 10.11 10.82Q11.17 11.79 11.17 13.68L11.17 13.68Q11.17 14.48 10.86 15.02Q10.56 15.57 9.92 15.57L9.92 15.57Q9.22 15.57 8.74 14.90ZM13.12 4.05L16.32 3.60L16.32 12.43Q16.80 11.57 17.30 11.04Q17.79 10.51 18.30 10.26Q18.82 10 19.28 9.92Q19.74 9.84 20.16 9.84L20.16 9.84Q21.60 9.84 22.48 10.38Q23.36 10.93 23.81 11.78Q24.26 12.62 24.40 13.63Q24.54 14.64 24.54 15.57L24.54 15.57Q24.54 16.14 24.51 16.83Q24.48 17.52 24.45 18.24Q24.42 18.96 24.38 19.68Q24.35 20.40 24.35 21.01L24.35 21.01Q24.35 21.26 24.38 21.73Q24.42 22.19 24.54 22.64Q24.67 23.09 24.96 23.42Q25.25 23.76 25.79 23.76L25.79 23.76Q26.53 23.76 27.12 22.93Q27.71 22.10 28.10 20.27L28.10 20.27L29.28 20.27Q28.93 22.29 28.38 23.46Q27.84 24.62 27.23 25.23Q26.62 25.84 26.02 26.02Q25.41 26.19 24.90 26.19L24.90 26.19Q23.87 26.19 23.17 25.79Q22.46 25.39 22.02 24.72Q21.57 24.05 21.36 23.15Q21.15 22.26 21.15 21.30L21.15 21.30Q21.15 21.01 21.17 20.22Q21.18 19.44 21.20 18.54Q21.22 17.65 21.23 16.85Q21.25 16.05 21.25 15.73L21.25 15.73Q21.25 14.70 21.09 14.03Q20.93 13.36 20.64 12.98Q20.35 12.59 19.98 12.43Q19.62 12.27 19.20 12.27L19.20 12.27Q18.21 12.27 17.49 13.07Q16.77 13.87 16.32 15.76L16.32 15.76L16.32 26L13.12 26L13.12 4.05ZM36.67 10L39.87 10L39.87 20.88Q39.87 21.20 39.90 21.68Q39.94 22.16 40.08 22.62Q40.22 23.09 40.51 23.42Q40.80 23.76 41.31 23.76L41.31 23.76Q42.88 23.76 43.62 20.27L43.62 20.27L44.80 20.27Q44.45 22.29 43.90 23.46Q43.36 24.62 42.75 25.23Q42.14 25.84 41.50 26.02Q40.86 26.19 40.35 26.19L40.35 26.19Q39.62 26.19 39.09 25.94Q38.56 25.68 38.19 25.26Q37.82 24.85 37.60 24.30Q37.38 23.76 37.25 23.15L37.25 23.15Q36.77 24.40 35.70 25.30Q34.62 26.19 33.09 26.19L33.09 26.19Q32.13 26.19 31.15 25.81Q30.18 25.42 29.39 24.54Q28.61 23.66 28.11 22.27Q27.62 20.88 27.62 18.86L27.62 18.86Q27.62 17.39 27.95 15.79Q28.29 14.19 29.02 12.88Q29.76 11.57 30.91 10.70Q32.06 9.84 33.70 9.84L33.70 9.84Q34.08 9.84 34.51 9.92Q34.94 10 35.34 10.19Q35.74 10.38 36.10 10.72Q36.45 11.06 36.67 11.54L36.67 11.54L36.67 10ZM33.89 23.76L33.89 23.76Q34.37 23.76 34.86 23.49Q35.36 23.22 35.76 22.75Q36.16 22.29 36.42 21.65Q36.67 21.01 36.67 20.27L36.67 20.27L36.67 12.98Q36.45 12.46 35.98 12.03Q35.52 11.60 34.78 11.60L34.78 11.60Q33.76 11.60 33.02 12.29Q32.29 12.98 31.84 14.02Q31.39 15.06 31.18 16.29Q30.98 17.52 30.98 18.64L30.98 18.64Q30.98 21.39 31.73 22.58Q32.48 23.76 33.89 23.76ZM50.85 14.90L50.85 14.90Q51.10 14.67 51.25 14.18Q51.39 13.68 51.39 13.23L51.39 13.23Q51.39 12.50 50.93 12.02Q50.46 11.54 49.63 11.54L49.63 11.54Q48.77 11.54 48.19 12.18Q47.62 12.82 47.26 13.79Q46.91 14.77 46.77 15.97Q46.62 17.17 46.62 18.32L46.62 18.32Q46.62 20.02 46.93 21.07Q47.23 22.13 47.74 22.72Q48.26 23.31 48.94 23.54Q49.63 23.76 50.40 23.76L50.40 23.76Q52.10 23.76 53.26 22.91Q54.43 22.06 55.26 20.27L55.26 20.27L56.35 20.27Q55.97 21.46 55.26 22.53Q54.56 23.60 53.63 24.42Q52.70 25.23 51.62 25.71Q50.53 26.19 49.34 26.19L49.34 26.19Q48.22 26.19 47.14 25.81Q46.05 25.42 45.18 24.54Q44.32 23.66 43.78 22.24Q43.23 20.82 43.23 18.74L43.23 18.74Q43.23 17.39 43.47 15.84Q43.71 14.29 44.37 12.96Q45.02 11.63 46.18 10.74Q47.33 9.84 49.15 9.84L49.15 9.84Q51.17 9.84 52.22 10.82Q53.28 11.79 53.28 13.68L53.28 13.68Q53.28 14.48 52.98 15.02Q52.67 15.57 52.03 15.57L52.03 15.57Q51.33 15.57 50.85 14.90ZM55.23 4.05L58.43 3.60L58.43 12.43Q58.91 11.57 59.41 11.04Q59.90 10.51 60.42 10.26Q60.93 10 61.39 9.92Q61.86 9.84 62.27 9.84L62.27 9.84Q63.71 9.84 64.59 10.38Q65.47 10.93 65.92 11.78Q66.37 12.62 66.51 13.63Q66.66 14.64 66.66 15.57L66.66 15.57Q66.66 16.14 66.62 16.83Q66.59 17.52 66.56 18.24Q66.53 18.96 66.50 19.68Q66.46 20.40 66.46 21.01L66.46 21.01Q66.46 21.26 66.50 21.73Q66.53 22.19 66.66 22.64Q66.78 23.09 67.07 23.42Q67.36 23.76 67.90 23.76L67.90 23.76Q68.64 23.76 69.23 22.93Q69.82 22.10 70.21 20.27L70.21 20.27L71.39 20.27Q71.04 22.29 70.50 23.46Q69.95 24.62 69.34 25.23Q68.74 25.84 68.13 26.02Q67.52 26.19 67.01 26.19L67.01 26.19Q65.98 26.19 65.28 25.79Q64.58 25.39 64.13 24.72Q63.68 24.05 63.47 23.15Q63.26 22.26 63.26 21.30L63.26 21.30Q63.26 21.01 63.28 20.22Q63.30 19.44 63.31 18.54Q63.33 17.65 63.34 16.85Q63.36 16.05 63.36 15.73L63.36 15.73Q63.36 14.70 63.20 14.03Q63.04 13.36 62.75 12.98Q62.46 12.59 62.10 12.43Q61.73 12.27 61.31 12.27L61.31 12.27Q60.32 12.27 59.60 13.07Q58.88 13.87 58.43 15.76L58.43 15.76L58.43 26L55.23 26L55.23 4.05ZM70.21 10L73.41 10L73.41 20.88Q73.41 21.20 73.44 21.68Q73.47 22.16 73.62 22.62Q73.76 23.09 74.05 23.42Q74.34 23.76 74.85 23.76L74.85 23.76Q76.42 23.76 77.15 20.27L77.15 20.27L78.34 20.27Q77.98 22.29 77.44 23.46Q76.90 24.62 76.29 25.23Q75.68 25.84 75.04 26.02Q74.40 26.19 73.89 26.19L73.89 26.19Q72.77 26.19 72.06 25.76Q71.36 25.33 70.94 24.66Q70.53 23.98 70.37 23.15Q70.21 22.32 70.21 21.55L70.21 21.55L70.21 10ZM69.63 5.39L69.63 5.39Q69.63 4.53 70.24 3.89Q70.85 3.25 71.74 3.25L71.74 3.25Q72.61 3.25 73.25 3.89Q73.89 4.53 73.89 5.39L73.89 5.39Q73.89 6.29 73.25 6.90Q72.61 7.50 71.74 7.50L71.74 7.50Q70.85 7.50 70.24 6.90Q69.63 6.29 69.63 5.39ZM83.94 16.37L83.94 18.61L77.54 18.61L77.54 16.37L83.94 16.37ZM98.27 20.27L99.62 20.27Q98.69 21.55 97.71 22.40Q96.74 23.25 95.81 23.89L95.81 23.89Q95.46 24.53 94.91 24.96Q94.37 25.39 93.74 25.66Q93.12 25.94 92.50 26.06Q91.87 26.19 91.36 26.19L91.36 26.19Q89.95 26.19 89.04 25.74Q88.13 25.30 87.58 24.61Q87.04 23.92 86.82 23.07Q86.59 22.22 86.59 21.46L86.59 21.46Q86.59 20.62 86.93 20Q87.26 19.38 87.74 19.12L87.74 19.12Q88.58 16.72 89.38 14.37Q90.18 12.02 90.43 9.65L90.43 9.65L93.66 9.01Q94.43 12.05 94.93 13.97Q95.42 15.89 95.73 17.22Q96.03 18.54 96.18 19.55Q96.32 20.56 96.32 21.78L96.32 21.78Q96.86 21.42 97.34 21.02Q97.82 20.62 98.27 20.27L98.27 20.27ZM92.93 21.55L92.93 21.55Q92.93 20.56 92.82 19.79Q92.70 19.02 92.48 18.10Q92.26 17.17 91.92 15.84Q91.58 14.51 91.14 12.43L91.14 12.43Q90.94 14.22 90.35 15.86Q89.76 17.49 89.28 19.22L89.28 19.22Q89.57 19.41 89.78 19.74Q89.98 20.08 89.98 20.62L89.98 20.62Q89.98 21.23 89.66 21.55Q89.34 21.87 88.96 21.87L88.96 21.87Q88.45 21.87 88.10 21.42L88.10 21.42Q88.35 22.54 88.99 23.17Q89.63 23.79 90.69 23.79L90.69 23.79Q91.71 23.79 92.32 23.26Q92.93 22.74 92.93 21.55ZM98.24 4.05L101.44 3.60L101.44 12.43Q101.92 11.57 102.42 11.04Q102.91 10.51 103.42 10.26Q103.94 10 104.40 9.92Q104.86 9.84 105.28 9.84L105.28 9.84Q106.72 9.84 107.60 10.38Q108.48 10.93 108.93 11.78Q109.38 12.62 109.52 13.63Q109.66 14.64 109.66 15.57L109.66 15.57Q109.66 16.14 109.63 16.83Q109.60 17.52 109.57 18.24Q109.54 18.96 109.50 19.68Q109.47 20.40 109.47 21.01L109.47 21.01Q109.47 21.26 109.50 21.73Q109.54 22.19 109.66 22.64Q109.79 23.09 110.08 23.42Q110.37 23.76 110.91 23.76L110.91 23.76Q111.65 23.76 112.24 22.93Q112.83 22.10 113.22 20.27L113.22 20.27L114.40 20.27Q114.05 22.29 113.50 23.46Q112.96 24.62 112.35 25.23Q111.74 25.84 111.14 26.02Q110.53 26.19 110.02 26.19L110.02 26.19Q108.99 26.19 108.29 25.79Q107.58 25.39 107.14 24.72Q106.69 24.05 106.48 23.15Q106.27 22.26 106.27 21.30L106.27 21.30Q106.27 21.01 106.29 20.22Q106.30 19.44 106.32 18.54Q106.34 17.65 106.35 16.85Q106.37 16.05 106.37 15.73L106.37 15.73Q106.37 14.70 106.21 14.03Q106.05 13.36 105.76 12.98Q105.47 12.59 105.10 12.43Q104.74 12.27 104.32 12.27L104.32 12.27Q103.33 12.27 102.61 13.07Q101.89 13.87 101.44 15.76L101.44 15.76L101.44 26L98.24 26L98.24 4.05ZM123.20 14L123.20 14Q123.20 16.24 121.36 17.74Q119.52 19.25 116.26 19.60L116.26 19.60Q116.38 20.88 116.72 21.68Q117.06 22.48 117.54 22.94Q118.02 23.41 118.64 23.58Q119.26 23.76 119.94 23.76L119.94 23.76Q121.47 23.76 122.82 22.96Q124.16 22.16 124.99 20.27L124.99 20.27L126.02 20.27Q125.60 21.46 124.86 22.53Q124.13 23.60 123.14 24.42Q122.14 25.23 120.99 25.71Q119.84 26.19 118.62 26.19L118.62 26.19Q117.50 26.19 116.46 25.81Q115.42 25.42 114.62 24.54Q113.82 23.66 113.33 22.26Q112.83 20.85 112.83 18.80L112.83 18.80Q112.83 17.46 113.14 15.89Q113.44 14.32 114.16 12.98Q114.88 11.63 116.05 10.74Q117.22 9.84 118.94 9.84L118.94 9.84Q119.74 9.84 120.50 10.02Q121.25 10.19 121.86 10.66Q122.46 11.12 122.83 11.92Q123.20 12.72 123.20 14ZM116.22 18.35L116.22 18.35Q118.50 18 119.82 16.75Q121.15 15.50 121.15 13.68L121.15 13.68Q121.15 12.46 120.74 11.94Q120.32 11.41 119.55 11.41L119.55 11.41Q118.72 11.41 118.10 12.05Q117.47 12.69 117.06 13.70Q116.64 14.70 116.43 15.94Q116.22 17.17 116.22 18.35ZM124.99 4.05L128.19 3.60L128.19 20.88Q128.19 21.20 128.22 21.68Q128.26 22.16 128.40 22.62Q128.54 23.09 128.83 23.42Q129.12 23.76 129.63 23.76L129.63 23.76Q131.20 23.76 131.94 20.27L131.94 20.27L133.12 20.27Q132.77 22.29 132.22 23.46Q131.68 24.62 131.07 25.23Q130.46 25.84 129.82 26.02Q129.18 26.19 128.67 26.19L128.67 26.19Q127.55 26.19 126.85 25.76Q126.14 25.33 125.73 24.66Q125.31 23.98 125.15 23.15Q124.99 22.32 124.99 21.55L124.99 21.55L124.99 4.05ZM131.90 4.05L135.10 3.60L135.10 20.88Q135.10 21.20 135.14 21.68Q135.17 22.16 135.31 22.62Q135.46 23.09 135.74 23.42Q136.03 23.76 136.54 23.76L136.54 23.76Q138.11 23.76 138.85 20.27L138.85 20.27L140.03 20.27Q139.68 22.29 139.14 23.46Q138.59 24.62 137.98 25.23Q137.38 25.84 136.74 26.02Q136.10 26.19 135.58 26.19L135.58 26.19Q134.46 26.19 133.76 25.76Q133.06 25.33 132.64 24.66Q132.22 23.98 132.06 23.15Q131.90 22.32 131.90 21.55L131.90 21.55L131.90 4.05Z"></path></svg><text fill="#303446" font-family="Georgia" font-size="16px" x="150" y="190.4700002670288"><tspan dy="0" x="150"></tspan></text></svg>