<?xml version="1.0" encoding="UTF-8" standalone="no"?>
<svg
   version="1.1"
   id="svg2"
   width="150"
   height="100"
   xmlns="http://www.w3.org/2000/svg"
   xmlns:svg="http://www.w3.org/2000/svg">
  <defs
     id="defs2" />
  <path
     fill="#ef9f76"
     d="m 76.7773,12.867651 c -13.810187,-1.016205 -25.375336,9.932432 -25.375336,23.534272 0,2.364069 0.352907,4.643076 1.003449,6.794508 C 55.33072,52.907903 64.349007,60 75,60 85.04299,60 93.63189,53.690168 97.03318,44.83343 98.2962,41.538196 98.85305,37.894338 98.48323,34.084628 97.3861,22.7363 88.15117,13.709527 76.7773,12.867651 Z M 53.294058,42.312073 c -0.514479,-1.883619 -0.790851,-3.865016 -0.790851,-5.91015 0,-12.86625 10.850844,-23.240888 23.882923,-22.458546 10.89754,0.6548 19.84789,9.230891 20.99151,20.085989 0.3191,3.031573 0.013,5.948394 -0.77803,8.66112 L 79.31145,25.406501 67.610186,37.103486 63.052171,32.549699 Z"
     id="path1"
     style="stroke-width:0.35221" />
  <path
     fill="#ef9f76"
     x="78.04499816894531"
     y="159.5299997329712"
     d="m 13.165,75.574166 v 0 q 0.25,-0.23 0.4,-0.72 0.14,-0.5 0.14,-0.95 v 0 q 0,-0.73 -0.46,-1.21 -0.47,-0.48 -1.3,-0.48 v 0 q -0.86,0 -1.44,0.64 -0.5800005,0.64 -0.9300005,1.61 -0.35,0.98 -0.49,2.18 -0.15,1.2 -0.15,2.35 v 0 q 0,1.7 0.31,2.749999 0.3,1.06 0.8100015,1.65 0.509999,0.59 1.2,0.82 0.69,0.22 1.46,0.22 v 0 q 1.69,0 2.86,-0.85 1.17,-0.85 2,-2.64 v 0 h 1.09 q -0.38,1.19 -1.09,2.26 -0.7,1.07 -1.63,1.89 -0.93,0.81 -2.020001,1.29 -1.079999,0.48 -2.27,0.48 v 0 q -1.12,0 -2.2100005,-0.38 -1.08,-0.39 -1.95,-1.27 -0.86,-0.88 -1.41,-2.3 -0.54,-1.42 -0.54,-3.499999 v 0 q 0,-1.35 0.24,-2.9 0.24,-1.55 0.9,-2.88 0.65,-1.33 1.8,-2.22 1.16,-0.9 2.9800005,-0.9 v 0 q 2.02,0 3.07,0.98 1.06,0.97 1.06,2.86 v 0 q 0,0.8 -0.31,1.34 -0.3,0.55 -0.94,0.55 v 0 q -0.7,0 -1.18,-0.67 z m 4.38,-10.85 3.2,-0.45 v 8.83 q 0.48,-0.86 0.98,-1.39 0.489999,-0.53 1,-0.78 0.52,-0.26 0.98,-0.34 0.46,-0.08 0.88,-0.08 v 0 q 1.44,0 2.32,0.54 0.88,0.55 1.329999,1.4 0.450001,0.84 0.590001,1.85 0.14,1.01 0.14,1.94 v 0 q 0,0.57 -0.03,1.26 -0.03,0.69 -0.06,1.41 -0.03,0.72 -0.07,1.44 -0.03,0.719999 -0.03,1.329999 v 0 q 0,0.25 0.03,0.72 0.04,0.46 0.16,0.91 0.13,0.45 0.42,0.78 0.29,0.34 0.83,0.34 v 0 q 0.74,0 1.33,-0.83 0.59,-0.83 0.98,-2.66 v 0 h 1.18 q -0.35,2.02 -0.9,3.19 -0.54,1.16 -1.15,1.77 -0.61,0.61 -1.21,0.79 -0.61,0.17 -1.12,0.17 v 0 q -1.03,0 -1.73,-0.4 -0.71,-0.4 -1.149999,-1.07 -0.45,-0.67 -0.66,-1.57 -0.210001,-0.89 -0.210001,-1.85 v 0 q 0,-0.29 0.02,-1.08 0.01,-0.779999 0.03,-1.679999 0.02,-0.89 0.03,-1.69 0.02,-0.8 0.02,-1.12 v 0 q 0,-1.03 -0.16,-1.7 -0.16,-0.67 -0.45,-1.05 -0.29,-0.39 -0.66,-0.55 -0.36,-0.16 -0.78,-0.16 v 0 q -0.99,0 -1.710001,0.8 -0.719999,0.8 -1.17,2.69 v 0 10.239999 h -3.2 z m 23.550001,5.95 h 3.2 v 10.879999 q 0,0.32 0.03,0.8 0.04,0.48 0.18,0.94 0.14,0.47 0.43,0.8 0.29,0.34 0.8,0.34 v 0 q 1.57,0 2.31,-3.49 v 0 h 1.18 q -0.35,2.02 -0.9,3.19 -0.54,1.16 -1.15,1.77 -0.61,0.61 -1.25,0.79 -0.64,0.17 -1.15,0.17 v 0 q -0.73,0 -1.26,-0.25 -0.53,-0.26 -0.900001,-0.68 -0.37,-0.41 -0.59,-0.96 -0.22,-0.54 -0.35,-1.15 v 0 q -0.48,1.25 -1.549999,2.15 -1.08,0.89 -2.61,0.89 v 0 q -0.96,0 -1.94,-0.38 -0.97,-0.39 -1.76,-1.27 -0.78,-0.88 -1.28,-2.27 -0.49,-1.39 -0.49,-3.409999 v 0 q 0,-1.47 0.33,-3.07 0.34,-1.6 1.07,-2.91 0.74,-1.31 1.89,-2.18 1.15,-0.86 2.79,-0.86 v 0 q 0.38,0 0.81,0.08 0.429999,0.08 0.83,0.27 0.4,0.19 0.76,0.53 0.35,0.34 0.57,0.82 v 0 z M 38.315,84.434165 v 0 q 0.48,0 0.97,-0.27 0.5,-0.27 0.900001,-0.74 0.4,-0.46 0.66,-1.1 0.25,-0.64 0.25,-1.38 v 0 -7.289999 q -0.22,-0.52 -0.69,-0.95 -0.46,-0.43 -1.200001,-0.43 v 0 q -1.02,0 -1.759999,0.69 -0.73,0.69 -1.18,1.73 -0.450001,1.04 -0.66,2.27 -0.2,1.23 -0.2,2.35 v 0 q 0,2.749999 0.75,3.939999 0.75,1.18 2.159999,1.18 z m 16.960001,-8.859999 v 0 q 0.25,-0.23 0.4,-0.72 0.14,-0.5 0.14,-0.95 v 0 q 0,-0.73 -0.46,-1.21 -0.47,-0.48 -1.3,-0.48 v 0 q -0.86,0 -1.44,0.64 -0.57,0.64 -0.93,1.61 -0.35,0.98 -0.49,2.18 -0.15,1.2 -0.15,2.35 v 0 q 0,1.7 0.31,2.749999 0.3,1.06 0.81,1.65 0.52,0.59 1.2,0.82 0.69,0.22 1.46,0.22 v 0 q 1.7,0 2.86,-0.85 1.17,-0.85 2,-2.64 v 0 h 1.09 q -0.38,1.19 -1.09,2.26 -0.7,1.07 -1.63,1.89 -0.93,0.81 -2.01,1.29 -1.09,0.48 -2.28,0.48 v 0 q -1.12,0 -2.2,-0.38 -1.09,-0.39 -1.96,-1.27 -0.86,-0.88 -1.4,-2.3 -0.55,-1.42 -0.55,-3.499999 v 0 q 0,-1.35 0.24,-2.9 0.24,-1.55 0.9,-2.88 0.65,-1.33 1.81,-2.22 1.15,-0.9 2.97,-0.9 v 0 q 2.02,0 3.07,0.98 1.06,0.97 1.06,2.86 v 0 q 0,0.8 -0.3,1.34 -0.31,0.55 -0.95,0.55 v 0 q -0.7,0 -1.18,-0.67 z m 4.379999,-10.85 3.200001,-0.45 v 8.83 q 0.48,-0.86 0.98,-1.39 0.49,-0.53 1.01,-0.78 0.51,-0.26 0.97,-0.34 0.47,-0.08 0.88,-0.08 v 0 q 1.44,0 2.319999,0.54 0.879999,0.55 1.33,1.4 0.45,0.84 0.59,1.85 0.150001,1.01 0.150001,1.94 v 0 q 0,0.57 -0.04,1.26 -0.03,0.69 -0.06,1.41 -0.03,0.72 -0.06,1.44 -0.04,0.719999 -0.04,1.329999 v 0 q 0,0.25 0.04,0.72 0.03,0.46 0.16,0.91 0.12,0.45 0.41,0.78 0.29,0.34 0.83,0.34 v 0 q 0.74,0 1.33,-0.83 0.59,-0.83 0.98,-2.66 v 0 h 1.179997 q -0.35,2.02 -0.889998,3.19 -0.549999,1.16 -1.159999,1.77 -0.6,0.61 -1.21,0.79 -0.61,0.17 -1.12,0.17 v 0 q -1.03,0 -1.730001,-0.4 -0.7,-0.4 -1.15,-1.07 -0.45,-0.67 -0.66,-1.57 -0.209999,-0.89 -0.209999,-1.85 v 0 q 0,-0.29 0.02,-1.08 0.02,-0.779999 0.03,-1.679999 0.02,-0.89 0.03,-1.69 0.02,-0.8 0.02,-1.12 v 0 q 0,-1.03 -0.159999,-1.7 -0.16,-0.67 -0.450001,-1.05 -0.29,-0.39 -0.65,-0.55 -0.37,-0.16 -0.79,-0.16 v 0 q -0.99,0 -1.71,0.8 -0.72,0.8 -1.17,2.69 v 0 10.239999 h -3.2 z m 14.980001,5.95 h 3.199996 v 10.879999 q 0,0.32 0.03,0.8 0.03,0.48 0.180001,0.94 0.14,0.47 0.43,0.8 0.29,0.34 0.8,0.34 v 0 q 1.57,0 2.3,-3.49 v 0 h 1.19 q -0.36,2.02 -0.900001,3.19 -0.54,1.16 -1.15,1.77 -0.61,0.61 -1.25,0.79 -0.64,0.17 -1.15,0.17 v 0 q -1.12,0 -1.83,-0.43 -0.7,-0.43 -1.12,-1.1 -0.409998,-0.68 -0.569998,-1.51 -0.16,-0.83 -0.16,-1.6 v 0 z m -0.58,-4.61 v 0 q 0,-0.86 0.61,-1.5 0.609997,-0.64 1.499996,-0.64 v 0 q 0.870001,0 1.510001,0.64 0.64,0.64 0.64,1.5 v 0 q 0,0.9 -0.64,1.51 -0.64,0.6 -1.510001,0.6 v 0 q -0.89,0 -1.499996,-0.6 -0.61,-0.61 -0.61,-1.51 z m 14.309996,10.98 v 2.24 h -6.4 v -2.24 z M 102.695,80.944165 h 1.35 q -0.93,1.28 -1.91,2.13 -0.97,0.85 -1.9,1.49 v 0 q -0.349999,0.64 -0.9,1.07 -0.54,0.43 -1.17,0.7 -0.62,0.28 -1.24,0.4 -0.63,0.13 -1.14,0.13 v 0 q -1.410003,0 -2.320003,-0.45 -0.91,-0.44 -1.459999,-1.13 -0.540001,-0.69 -0.760001,-1.54 -0.23,-0.85 -0.23,-1.61 v 0 q 0,-0.84 0.34,-1.459999 0.33,-0.62 0.81,-0.88 v 0 q 0.840001,-2.4 1.64,-4.75 0.8,-2.35 1.05,-4.72 v 0 l 3.230004,-0.64 q 0.77,3.04 1.27,4.96 0.489999,1.92 0.799999,3.25 0.3,1.32 0.45,2.33 0.14,1.009999 0.14,2.229999 v 0 q 0.54,-0.36 1.02,-0.76 0.48,-0.4 0.93,-0.75 z m -5.339999,1.28 v 0 q 0,-0.99 -0.11,-1.759999 -0.120001,-0.77 -0.340001,-1.69 -0.22,-0.93 -0.56,-2.26 -0.34,-1.33 -0.78,-3.41 v 0 q -0.2,1.79 -0.790003,3.43 -0.59,1.63 -1.069999,3.36 v 0 q 0.29,0.19 0.5,0.52 0.2,0.339999 0.2,0.879999 v 0 q 0,0.61 -0.32,0.93 -0.32,0.32 -0.7,0.32 v 0 q -0.51,0 -0.86,-0.45 v 0 q 0.25,1.12 0.89,1.75 0.64,0.62 1.7,0.62 v 0 q 1.020003,0 1.630003,-0.53 0.61,-0.52 0.61,-1.71 z m 5.309999,-17.499999 3.2,-0.45 v 8.83 q 0.48,-0.86 0.98,-1.39 0.49,-0.53 1,-0.78 0.52,-0.26 0.98,-0.34 0.46,-0.08 0.88,-0.08 v 0 q 1.44,0 2.32,0.54 0.88,0.55 1.33,1.4 0.45,0.84 0.59,1.85 0.14,1.01 0.14,1.94 v 0 q 0,0.57 -0.03,1.26 -0.03,0.69 -0.06,1.41 -0.03,0.72 -0.07,1.44 -0.03,0.719999 -0.03,1.329999 v 0 q 0,0.25 0.03,0.72 0.04,0.46 0.16,0.91 0.13,0.45 0.42,0.78 0.29,0.34 0.83,0.34 v 0 q 0.74,0 1.33,-0.83 0.59,-0.83 0.98,-2.66 v 0 h 1.18 q -0.35,2.02 -0.9,3.19 -0.54,1.16 -1.15,1.77 -0.61,0.61 -1.21,0.79 -0.61,0.17 -1.12,0.17 v 0 q -1.03,0 -1.73,-0.4 -0.71,-0.4 -1.15,-1.07 -0.45,-0.67 -0.66,-1.57 -0.21,-0.89 -0.21,-1.85 v 0 q 0,-0.29 0.02,-1.08 0.01,-0.779999 0.03,-1.679999 0.02,-0.89 0.03,-1.69 0.02,-0.8 0.02,-1.12 v 0 q 0,-1.03 -0.16,-1.7 -0.16,-0.67 -0.45,-1.05 -0.29,-0.39 -0.66,-0.55 -0.36,-0.16 -0.78,-0.16 v 0 q -0.99,0 -1.71,0.8 -0.72,0.8 -1.17,2.69 v 0 10.239999 h -3.2 z m 24.96,9.95 v 0 q 0,2.24 -1.84,3.74 -1.84,1.51 -5.1,1.86 v 0 q 0.12,1.279999 0.46,2.079999 0.34,0.8 0.82,1.26 0.48,0.47 1.1,0.64 0.62,0.18 1.3,0.18 v 0 q 1.53,0 2.88,-0.8 1.34,-0.8 2.17,-2.69 v 0 h 1.03 q -0.42,1.19 -1.16,2.26 -0.73,1.07 -1.72,1.89 -1,0.81 -2.15,1.29 -1.15,0.48 -2.37,0.48 v 0 q -1.12,0 -2.16,-0.38 -1.04,-0.39 -1.84,-1.27 -0.8,-0.88 -1.29,-2.28 -0.5,-1.41 -0.5,-3.459999 v 0 q 0,-1.34 0.31,-2.91 0.3,-1.57 1.02,-2.91 0.72,-1.35 1.89,-2.24 1.17,-0.9 2.89,-0.9 v 0 q 0.8,0 1.56,0.18 0.75,0.17 1.36,0.64 0.6,0.46 0.97,1.26 0.37,0.8 0.37,2.08 z m -6.98,4.35 v 0 q 2.28,-0.35 3.6,-1.6 1.33,-1.25 1.33,-3.07 v 0 q 0,-1.22 -0.41,-1.74 -0.42,-0.53 -1.19,-0.53 v 0 q -0.83,0 -1.45,0.64 -0.63,0.64 -1.04,1.65 -0.42,1 -0.63,2.24 -0.21,1.23 -0.21,2.41 z m 8.77,-14.3 3.2,-0.45 v 17.279999 q 0,0.32 0.03,0.8 0.04,0.48 0.18,0.94 0.14,0.47 0.43,0.8 0.29,0.34 0.8,0.34 v 0 q 1.57,0 2.31,-3.49 v 0 h 1.18 q -0.35,2.02 -0.9,3.19 -0.54,1.16 -1.15,1.77 -0.61,0.61 -1.25,0.79 -0.64,0.17 -1.15,0.17 v 0 q -1.12,0 -1.82,-0.43 -0.71,-0.43 -1.12,-1.1 -0.42,-0.68 -0.58,-1.51 -0.16,-0.83 -0.16,-1.6 v 0 z m 6.91,0 3.2,-0.45 v 17.279999 q 0,0.32 0.04,0.8 0.03,0.48 0.17,0.94 0.15,0.47 0.43,0.8 0.29,0.34 0.8,0.34 v 0 q 1.57,0 2.31,-3.49 v 0 h 1.18 q -0.35,2.02 -0.89,3.19 -0.55,1.16 -1.16,1.77 -0.6,0.61 -1.24,0.79 -0.64,0.17 -1.16,0.17 v 0 q -1.12,0 -1.82,-0.43 -0.7,-0.43 -1.12,-1.1 -0.42,-0.68 -0.58,-1.51 -0.16,-0.83 -0.16,-1.6 v 0 z"
     id="path2" />
</svg>
